<svg width="32" height="32" viewBox="0 0 32 32" fill="none" xmlns="http://www.w3.org/2000/svg">
<path fill-rule="evenodd" clip-rule="evenodd" d="M19.5512 4.70629C14.6969 2.54332 8.99806 3.83089 5.54517 7.87077C2.09227 11.9107 1.70786 17.7405 4.60038 22.1988C7.49291 26.6571 12.9733 28.6818 18.0697 27.175C23.166 25.6681 26.6642 20.9887 26.6672 15.6743V14.435C26.6672 13.6987 27.2642 13.1017 28.0006 13.1017C28.737 13.1017 29.3339 13.6987 29.3339 14.435V15.675C29.3302 22.1705 25.0546 27.8905 18.8258 29.7322C12.5969 31.5739 5.89862 29.0992 2.36331 23.6502C-1.172 18.2011 -0.702162 11.0758 3.51804 6.13818C7.73824 1.20055 14.7035 -0.373152 20.6366 2.27048C21.3092 2.57018 21.6115 3.35842 21.3118 4.03105C21.0121 4.70368 20.2239 5.00599 19.5512 4.70629Z" fill="#2D81F7"/>
<path fill-rule="evenodd" clip-rule="evenodd" d="M30.2753 2.73215C30.796 3.25285 30.796 4.09707 30.2753 4.61776L15.6087 19.2844C15.088 19.8051 14.2438 19.8051 13.7231 19.2844L9.72305 15.2844C9.20235 14.7637 9.20235 13.9195 9.72305 13.3988C10.2438 12.8781 11.088 12.8781 11.6087 13.3988L14.6659 16.456L28.3897 2.73215C28.9104 2.21145 29.7546 2.21145 30.2753 2.73215Z" fill="#2D81F7"/>
</svg>
